<?xml version="1.0" encoding="UTF-8"?>
<svg width="61px" height="64px" viewBox="0 0 61 64" version="1.1" xmlns="http://www.w3.org/2000/svg" xmlns:xlink="http://www.w3.org/1999/xlink">
    <title>logos/isotipo/rviewer-light</title>
    <g id="Elements" stroke="none" stroke-width="1" fill="none" fill-rule="evenodd">
        <g id="Logo" transform="translate(-850.000000, -680.000000)">
            <g id="Group" transform="translate(834.000000, 664.000000)">
                <g id="isotipo" transform="translate(16.000000, 16.000000)">
                    <path d="M60.6727988,45.5354241 C60.6727988,55.2970496 52.7594636,63.210292 42.997838,63.210292 C33.2363054,63.210292 25.3229701,55.2970496 25.3229701,45.5354241 C25.3229701,35.7738914 33.2363054,27.8605562 42.997838,27.8605562 C52.7594636,27.8605562 60.6727988,35.7738914 60.6727988,45.5354241" id="dot" fill="#4FFAB6"></path>
                    <path d="M0,64 L0,1.64718723 L15.460598,1.64718723 L15.460598,9.12348331 C16.8106357,7.01278374 18.2272743,5.36559652 19.7067054,4.18201451 C21.1837213,3.00084761 22.7039303,2.09100726 24.268447,1.45732366 C25.8305486,0.82354717 27.4148505,0.424127721 29.0213527,0.253956459 C30.6253469,0.0838780842 32.2725341,0 33.964029,0 L36.1179216,0 L36.1179216,16.8562438 C34.5977126,16.6022874 33.0762961,16.4741016 31.55618,16.4741016 C21.500656,16.4741016 16.4741016,21.5018636 16.4741016,31.5548795 L16.4741016,64 L0,64 Z" id="R" fill="#FFFFFF"></path>
                </g>
            </g>
        </g>
    </g>
</svg>